<svg xmlns="http://www.w3.org/2000/svg" width="32" height="48" fill="none" viewBox="0 0 32 48">
  <path fill="#0A3871" fill-rule="evenodd" d="M24.084 23.653a1.837 1.837 0 0 1-.319.774 1.903 1.903 0 0 1-.634.563c-.508.319-.953.478-1.402.637-.959.322-1.967.643-3.033 1.016-1.125.373-2.134.745-3.033 1.015-1.123.373-2.19.695-3.203 1.067a9.511 9.511 0 0 0-2.13 1.23 8.864 8.864 0 0 0-1.572 1.815c-.45.745-.734 1.707-.734 2.827 0 2.245.562 3.952 1.686 5.02 1.122 1.123 3.203 1.655 6.286 1.655 3.144 0 5.277-.586 6.405-1.761 1.12-1.175 1.68-2.828 1.68-4.962V23.653h.003ZM15.999 0c5.505 0 9.546 1.016 12.126 3.098C30.71 5.129 32 7.741 32 10.837v26.378c0 1.067-.222 2.242-.614 3.522-.397 1.285-1.18 2.458-2.416 3.522-1.178 1.072-2.806 1.98-4.883 2.674C22.009 47.627 19.315 48 16 48c-3.308 0-6.007-.373-8.082-1.067-2.075-.694-3.706-1.602-4.883-2.674a8.539 8.539 0 0 1-2.414-3.522C.225 39.459 0 38.284 0 37.217v-4.216c0-2.244.617-4.327 1.853-6.145 1.236-1.866 2.974-3.147 5.221-3.949 1.123-.372 2.414-.745 3.872-1.226 1.461-.483 2.806-.964 4.155-1.388a75.65 75.65 0 0 0 3.536-1.234c.609-.237 1.227-.45 1.853-.638l1.01-.48c.398-.214.787-.535 1.181-.962a6.8 6.8 0 0 0 1.011-1.44c.3-.58.454-1.219.45-1.867v-1.71a4.24 4.24 0 0 0-.397-1.817c-.222-.643-.672-1.229-1.289-1.761-.616-.535-1.46-.962-2.469-1.286-1.01-.316-2.355-.478-3.874-.478-3.145 0-5.222.592-6.344 1.815-.953 1.07-1.514 2.404-1.625 3.898 0 .321-.281.535-.62.535l-6.846.108a.626.626 0 0 1-.435-.172.591.591 0 0 1-.185-.42v-1.542c0-1.5.283-2.887.9-4.222.62-1.337 1.575-2.455 2.864-3.42C5.113 2.243 6.799 1.443 8.818.909 10.785.265 13.198 0 16.004 0h-.005Z" clip-rule="evenodd"/>
</svg>
